<mxfile host="app.diagrams.net" modified="2023-09-14T23:41:05.370Z" agent="Mozilla/5.0 (X11; Linux x86_64; rv:109.0) Gecko/20100101 Firefox/117.0" etag="oSGBeFTy-gsKaeWTGZn5" version="21.7.5" type="github">
  <diagram name="Page-1" id="kdJaEYyY36MufXAirq7M">
    <mxGraphModel dx="1632" dy="1477" grid="1" gridSize="10" guides="1" tooltips="1" connect="1" arrows="1" fold="1" page="1" pageScale="1" pageWidth="850" pageHeight="1100" math="0" shadow="0">
      <root>
        <mxCell id="0" />
        <mxCell id="1" parent="0" />
        <mxCell id="EVSIIOYRDyjoUFrQbc39-4" value="&lt;div&gt;ATM System&lt;/div&gt;" style="swimlane;whiteSpace=wrap;html=1;" parent="1" vertex="1">
          <mxGeometry x="40" y="-90" width="1500" height="510" as="geometry" />
        </mxCell>
        <mxCell id="EVSIIOYRDyjoUFrQbc39-7" value="Insert Card" style="ellipse;whiteSpace=wrap;html=1;" parent="EVSIIOYRDyjoUFrQbc39-4" vertex="1">
          <mxGeometry x="20" y="40" width="140" height="70" as="geometry" />
        </mxCell>
        <mxCell id="EVSIIOYRDyjoUFrQbc39-12" value="Display Not Bank Card Error" style="ellipse;whiteSpace=wrap;html=1;" parent="EVSIIOYRDyjoUFrQbc39-4" vertex="1">
          <mxGeometry x="20" y="230" width="140" height="70" as="geometry" />
        </mxCell>
        <mxCell id="EVSIIOYRDyjoUFrQbc39-13" value="&amp;lt;&amp;lt;extend&amp;gt;&amp;gt;" style="html=1;verticalAlign=bottom;labelBackgroundColor=none;endArrow=open;endFill=0;dashed=1;rounded=0;exitX=0.5;exitY=0;exitDx=0;exitDy=0;entryX=0.5;entryY=1;entryDx=0;entryDy=0;" parent="EVSIIOYRDyjoUFrQbc39-4" source="EVSIIOYRDyjoUFrQbc39-12" target="EVSIIOYRDyjoUFrQbc39-7" edge="1">
          <mxGeometry width="160" relative="1" as="geometry">
            <mxPoint x="60" y="200" as="sourcePoint" />
            <mxPoint x="220" y="200" as="targetPoint" />
          </mxGeometry>
        </mxCell>
        <mxCell id="R9bvdQi3VKJ3fMyRb9Qu-3" value="&amp;lt;&amp;lt;include&amp;gt;&amp;gt;" style="html=1;verticalAlign=bottom;labelBackgroundColor=none;endArrow=open;endFill=0;dashed=1;rounded=0;exitX=0;exitY=0.5;exitDx=0;exitDy=0;entryX=1;entryY=0.5;entryDx=0;entryDy=0;" parent="EVSIIOYRDyjoUFrQbc39-4" source="R9bvdQi3VKJ3fMyRb9Qu-6" target="EVSIIOYRDyjoUFrQbc39-7" edge="1">
          <mxGeometry width="160" relative="1" as="geometry">
            <mxPoint x="390" y="130" as="sourcePoint" />
            <mxPoint x="400" y="75" as="targetPoint" />
          </mxGeometry>
        </mxCell>
        <mxCell id="R9bvdQi3VKJ3fMyRb9Qu-4" value="Display PIN Error" style="ellipse;whiteSpace=wrap;html=1;" parent="EVSIIOYRDyjoUFrQbc39-4" vertex="1">
          <mxGeometry x="270" y="230" width="140" height="70" as="geometry" />
        </mxCell>
        <mxCell id="R9bvdQi3VKJ3fMyRb9Qu-5" value="&amp;lt;&amp;lt;extend&amp;gt;&amp;gt;" style="html=1;verticalAlign=bottom;labelBackgroundColor=none;endArrow=open;endFill=0;dashed=1;rounded=0;exitX=0.5;exitY=0;exitDx=0;exitDy=0;entryX=0.5;entryY=1;entryDx=0;entryDy=0;" parent="EVSIIOYRDyjoUFrQbc39-4" source="R9bvdQi3VKJ3fMyRb9Qu-4" target="R9bvdQi3VKJ3fMyRb9Qu-6" edge="1">
          <mxGeometry width="160" relative="1" as="geometry">
            <mxPoint x="580" y="230" as="sourcePoint" />
            <mxPoint x="570" y="120" as="targetPoint" />
          </mxGeometry>
        </mxCell>
        <mxCell id="R9bvdQi3VKJ3fMyRb9Qu-6" value="Input Pin" style="ellipse;whiteSpace=wrap;html=1;" parent="EVSIIOYRDyjoUFrQbc39-4" vertex="1">
          <mxGeometry x="270" y="40" width="140" height="70" as="geometry" />
        </mxCell>
        <mxCell id="d3OAMxN0Ykl_ihY5fhsD-1" value="Withdraw" style="ellipse;whiteSpace=wrap;html=1;" vertex="1" parent="EVSIIOYRDyjoUFrQbc39-4">
          <mxGeometry x="590" y="60" width="140" height="70" as="geometry" />
        </mxCell>
        <mxCell id="d3OAMxN0Ykl_ihY5fhsD-4" value="Deposit" style="ellipse;whiteSpace=wrap;html=1;" vertex="1" parent="EVSIIOYRDyjoUFrQbc39-4">
          <mxGeometry x="470" y="280" width="140" height="70" as="geometry" />
        </mxCell>
        <mxCell id="d3OAMxN0Ykl_ihY5fhsD-3" value="Check Balance" style="ellipse;whiteSpace=wrap;html=1;" vertex="1" parent="EVSIIOYRDyjoUFrQbc39-4">
          <mxGeometry x="790" y="230" width="140" height="70" as="geometry" />
        </mxCell>
        <mxCell id="d3OAMxN0Ykl_ihY5fhsD-5" value="&amp;lt;&amp;lt;include&amp;gt;&amp;gt;" style="html=1;verticalAlign=bottom;labelBackgroundColor=none;endArrow=open;endFill=0;dashed=1;rounded=0;exitX=0;exitY=0.5;exitDx=0;exitDy=0;entryX=1;entryY=0.5;entryDx=0;entryDy=0;" edge="1" parent="EVSIIOYRDyjoUFrQbc39-4" source="d3OAMxN0Ykl_ihY5fhsD-1" target="R9bvdQi3VKJ3fMyRb9Qu-6">
          <mxGeometry width="160" relative="1" as="geometry">
            <mxPoint x="750" y="74.5" as="sourcePoint" />
            <mxPoint x="650" y="74.5" as="targetPoint" />
          </mxGeometry>
        </mxCell>
        <mxCell id="d3OAMxN0Ykl_ihY5fhsD-8" value="&amp;lt;&amp;lt;include&amp;gt;&amp;gt;" style="html=1;verticalAlign=bottom;labelBackgroundColor=none;endArrow=open;endFill=0;dashed=1;rounded=0;exitX=0;exitY=0.5;exitDx=0;exitDy=0;entryX=1;entryY=1;entryDx=0;entryDy=0;" edge="1" parent="EVSIIOYRDyjoUFrQbc39-4" source="d3OAMxN0Ykl_ihY5fhsD-4" target="R9bvdQi3VKJ3fMyRb9Qu-6">
          <mxGeometry width="160" relative="1" as="geometry">
            <mxPoint x="730" y="160" as="sourcePoint" />
            <mxPoint x="620" y="160" as="targetPoint" />
          </mxGeometry>
        </mxCell>
        <mxCell id="d3OAMxN0Ykl_ihY5fhsD-7" value="&amp;lt;&amp;lt;include&amp;gt;&amp;gt;" style="html=1;verticalAlign=bottom;labelBackgroundColor=none;endArrow=open;endFill=0;dashed=1;rounded=0;exitX=0;exitY=0.5;exitDx=0;exitDy=0;entryX=0.914;entryY=0.914;entryDx=0;entryDy=0;entryPerimeter=0;" edge="1" parent="EVSIIOYRDyjoUFrQbc39-4" source="d3OAMxN0Ykl_ihY5fhsD-3" target="R9bvdQi3VKJ3fMyRb9Qu-6">
          <mxGeometry width="160" relative="1" as="geometry">
            <mxPoint x="760" y="230" as="sourcePoint" />
            <mxPoint x="650" y="230" as="targetPoint" />
          </mxGeometry>
        </mxCell>
        <mxCell id="d3OAMxN0Ykl_ihY5fhsD-16" value="Input Withdraw Amount" style="ellipse;whiteSpace=wrap;html=1;" vertex="1" parent="EVSIIOYRDyjoUFrQbc39-4">
          <mxGeometry x="910" y="40" width="140" height="70" as="geometry" />
        </mxCell>
        <mxCell id="d3OAMxN0Ykl_ihY5fhsD-17" value="&amp;lt;&amp;lt;include&amp;gt;&amp;gt;" style="html=1;verticalAlign=bottom;labelBackgroundColor=none;endArrow=open;endFill=0;dashed=1;rounded=0;exitX=0.5;exitY=0;exitDx=0;exitDy=0;entryX=0.5;entryY=1;entryDx=0;entryDy=0;" edge="1" parent="EVSIIOYRDyjoUFrQbc39-4" source="d3OAMxN0Ykl_ihY5fhsD-20" target="d3OAMxN0Ykl_ihY5fhsD-1">
          <mxGeometry width="160" relative="1" as="geometry">
            <mxPoint x="820" y="130" as="sourcePoint" />
            <mxPoint x="650" y="130" as="targetPoint" />
          </mxGeometry>
        </mxCell>
        <mxCell id="d3OAMxN0Ykl_ihY5fhsD-18" value="&lt;div&gt;Display Insufficient Amount&lt;/div&gt;" style="ellipse;whiteSpace=wrap;html=1;" vertex="1" parent="EVSIIOYRDyjoUFrQbc39-4">
          <mxGeometry x="1140" y="130" width="140" height="70" as="geometry" />
        </mxCell>
        <mxCell id="d3OAMxN0Ykl_ihY5fhsD-19" value="&amp;lt;&amp;lt;extend&amp;gt;&amp;gt;" style="html=1;verticalAlign=bottom;labelBackgroundColor=none;endArrow=open;endFill=0;dashed=1;rounded=0;exitX=0.5;exitY=0;exitDx=0;exitDy=0;entryX=0.5;entryY=1;entryDx=0;entryDy=0;" edge="1" parent="EVSIIOYRDyjoUFrQbc39-4" source="d3OAMxN0Ykl_ihY5fhsD-18" target="d3OAMxN0Ykl_ihY5fhsD-16">
          <mxGeometry width="160" relative="1" as="geometry">
            <mxPoint x="1250" y="220" as="sourcePoint" />
            <mxPoint x="1010" y="100" as="targetPoint" />
          </mxGeometry>
        </mxCell>
        <mxCell id="d3OAMxN0Ykl_ihY5fhsD-20" value="Pick an account" style="ellipse;whiteSpace=wrap;html=1;" vertex="1" parent="EVSIIOYRDyjoUFrQbc39-4">
          <mxGeometry x="630" y="400" width="140" height="70" as="geometry" />
        </mxCell>
        <mxCell id="d3OAMxN0Ykl_ihY5fhsD-21" value="&amp;lt;&amp;lt;include&amp;gt;&amp;gt;" style="html=1;verticalAlign=bottom;labelBackgroundColor=none;endArrow=open;endFill=0;dashed=1;rounded=0;exitX=0.5;exitY=0;exitDx=0;exitDy=0;entryX=0.5;entryY=1;entryDx=0;entryDy=0;" edge="1" parent="EVSIIOYRDyjoUFrQbc39-4" source="d3OAMxN0Ykl_ihY5fhsD-20" target="d3OAMxN0Ykl_ihY5fhsD-4">
          <mxGeometry width="160" relative="1" as="geometry">
            <mxPoint x="650" y="320" as="sourcePoint" />
            <mxPoint x="570" y="320" as="targetPoint" />
          </mxGeometry>
        </mxCell>
        <mxCell id="d3OAMxN0Ykl_ihY5fhsD-22" value="&amp;lt;&amp;lt;include&amp;gt;&amp;gt;" style="html=1;verticalAlign=bottom;labelBackgroundColor=none;endArrow=open;endFill=0;dashed=1;rounded=0;exitX=1;exitY=0;exitDx=0;exitDy=0;entryX=0.5;entryY=1;entryDx=0;entryDy=0;" edge="1" parent="EVSIIOYRDyjoUFrQbc39-4" source="d3OAMxN0Ykl_ihY5fhsD-20" target="d3OAMxN0Ykl_ihY5fhsD-3">
          <mxGeometry width="160" relative="1" as="geometry">
            <mxPoint x="960" y="360" as="sourcePoint" />
            <mxPoint x="810" y="320" as="targetPoint" />
          </mxGeometry>
        </mxCell>
        <mxCell id="d3OAMxN0Ykl_ihY5fhsD-23" value="&amp;lt;&amp;lt;include&amp;gt;&amp;gt;" style="html=1;verticalAlign=bottom;labelBackgroundColor=none;endArrow=open;endFill=0;dashed=1;rounded=0;entryX=1;entryY=0;entryDx=0;entryDy=0;exitX=0;exitY=0.5;exitDx=0;exitDy=0;" edge="1" parent="EVSIIOYRDyjoUFrQbc39-4" source="d3OAMxN0Ykl_ihY5fhsD-16" target="d3OAMxN0Ykl_ihY5fhsD-20">
          <mxGeometry width="160" relative="1" as="geometry">
            <mxPoint x="780" y="300" as="sourcePoint" />
            <mxPoint x="700" y="110" as="targetPoint" />
          </mxGeometry>
        </mxCell>
        <mxCell id="d3OAMxN0Ykl_ihY5fhsD-24" value="&lt;div&gt;Display Insufficient Bill Error&lt;br&gt;&lt;/div&gt;" style="ellipse;whiteSpace=wrap;html=1;" vertex="1" parent="EVSIIOYRDyjoUFrQbc39-4">
          <mxGeometry x="1235" y="50" width="140" height="70" as="geometry" />
        </mxCell>
        <mxCell id="d3OAMxN0Ykl_ihY5fhsD-25" value="&amp;lt;&amp;lt;extend&amp;gt;&amp;gt;" style="html=1;verticalAlign=bottom;labelBackgroundColor=none;endArrow=open;endFill=0;dashed=1;rounded=0;exitX=0.5;exitY=0;exitDx=0;exitDy=0;entryX=1;entryY=0.5;entryDx=0;entryDy=0;" edge="1" parent="EVSIIOYRDyjoUFrQbc39-4" source="d3OAMxN0Ykl_ihY5fhsD-24" target="d3OAMxN0Ykl_ihY5fhsD-16">
          <mxGeometry width="160" relative="1" as="geometry">
            <mxPoint x="1160" y="120" as="sourcePoint" />
            <mxPoint x="1100" y="20" as="targetPoint" />
          </mxGeometry>
        </mxCell>
        <mxCell id="d3OAMxN0Ykl_ihY5fhsD-26" value="Operation Success" style="ellipse;whiteSpace=wrap;html=1;" vertex="1" parent="EVSIIOYRDyjoUFrQbc39-4">
          <mxGeometry x="1290" y="390" width="140" height="70" as="geometry" />
        </mxCell>
        <mxCell id="d3OAMxN0Ykl_ihY5fhsD-27" value="Stop the session" style="ellipse;whiteSpace=wrap;html=1;" vertex="1" parent="EVSIIOYRDyjoUFrQbc39-4">
          <mxGeometry x="1340" y="210" width="140" height="70" as="geometry" />
        </mxCell>
        <mxCell id="d3OAMxN0Ykl_ihY5fhsD-28" value="&amp;lt;&amp;lt;extend&amp;gt;&amp;gt;" style="html=1;verticalAlign=bottom;labelBackgroundColor=none;endArrow=open;endFill=0;dashed=1;rounded=0;entryX=1;entryY=0;entryDx=0;entryDy=0;exitX=0.5;exitY=1;exitDx=0;exitDy=0;" edge="1" parent="EVSIIOYRDyjoUFrQbc39-4" source="d3OAMxN0Ykl_ihY5fhsD-27" target="d3OAMxN0Ykl_ihY5fhsD-26">
          <mxGeometry width="160" relative="1" as="geometry">
            <mxPoint x="1320" y="200" as="sourcePoint" />
            <mxPoint x="1300" y="280" as="targetPoint" />
          </mxGeometry>
        </mxCell>
        <mxCell id="d3OAMxN0Ykl_ihY5fhsD-29" value="&amp;lt;&amp;lt;include&amp;gt;&amp;gt;" style="html=1;verticalAlign=bottom;labelBackgroundColor=none;endArrow=open;endFill=0;dashed=1;rounded=0;exitX=0;exitY=0.5;exitDx=0;exitDy=0;entryX=1;entryY=0.5;entryDx=0;entryDy=0;" edge="1" parent="EVSIIOYRDyjoUFrQbc39-4" source="d3OAMxN0Ykl_ihY5fhsD-26" target="d3OAMxN0Ykl_ihY5fhsD-20">
          <mxGeometry width="160" relative="1" as="geometry">
            <mxPoint x="970" y="430" as="sourcePoint" />
            <mxPoint x="820" y="390" as="targetPoint" />
          </mxGeometry>
        </mxCell>
        <mxCell id="d3OAMxN0Ykl_ihY5fhsD-30" value="&amp;lt;&amp;lt;include&amp;gt;&amp;gt;" style="html=1;verticalAlign=bottom;labelBackgroundColor=none;endArrow=open;endFill=0;dashed=1;rounded=0;exitX=0.5;exitY=0;exitDx=0;exitDy=0;entryX=0;entryY=1;entryDx=0;entryDy=0;" edge="1" parent="EVSIIOYRDyjoUFrQbc39-4" source="d3OAMxN0Ykl_ihY5fhsD-26" target="d3OAMxN0Ykl_ihY5fhsD-16">
          <mxGeometry width="160" relative="1" as="geometry">
            <mxPoint x="1170" y="290" as="sourcePoint" />
            <mxPoint x="980" y="250" as="targetPoint" />
          </mxGeometry>
        </mxCell>
        <mxCell id="d3OAMxN0Ykl_ihY5fhsD-31" value="Put Cash In" style="ellipse;whiteSpace=wrap;html=1;" vertex="1" parent="EVSIIOYRDyjoUFrQbc39-4">
          <mxGeometry x="960" y="280" width="140" height="70" as="geometry" />
        </mxCell>
        <mxCell id="d3OAMxN0Ykl_ihY5fhsD-32" value="&amp;lt;&amp;lt;include&amp;gt;&amp;gt;" style="html=1;verticalAlign=bottom;labelBackgroundColor=none;endArrow=open;endFill=0;dashed=1;rounded=0;exitX=0;exitY=0.5;exitDx=0;exitDy=0;entryX=1;entryY=0.5;entryDx=0;entryDy=0;" edge="1" parent="EVSIIOYRDyjoUFrQbc39-4" source="d3OAMxN0Ykl_ihY5fhsD-31" target="d3OAMxN0Ykl_ihY5fhsD-20">
          <mxGeometry width="160" relative="1" as="geometry">
            <mxPoint x="710" y="410" as="sourcePoint" />
            <mxPoint x="550" y="360" as="targetPoint" />
          </mxGeometry>
        </mxCell>
        <mxCell id="d3OAMxN0Ykl_ihY5fhsD-33" value="&amp;lt;&amp;lt;include&amp;gt;&amp;gt;" style="html=1;verticalAlign=bottom;labelBackgroundColor=none;endArrow=open;endFill=0;dashed=1;rounded=0;exitX=0;exitY=0.5;exitDx=0;exitDy=0;entryX=1;entryY=0.5;entryDx=0;entryDy=0;" edge="1" parent="EVSIIOYRDyjoUFrQbc39-4" source="d3OAMxN0Ykl_ihY5fhsD-26" target="d3OAMxN0Ykl_ihY5fhsD-31">
          <mxGeometry width="160" relative="1" as="geometry">
            <mxPoint x="1170" y="340" as="sourcePoint" />
            <mxPoint x="980" y="460" as="targetPoint" />
          </mxGeometry>
        </mxCell>
        <mxCell id="EVSIIOYRDyjoUFrQbc39-9" style="edgeStyle=orthogonalEdgeStyle;rounded=0;orthogonalLoop=1;jettySize=auto;html=1;exitX=1;exitY=0.3333333333333333;exitDx=0;exitDy=0;exitPerimeter=0;" parent="1" source="EVSIIOYRDyjoUFrQbc39-1" target="EVSIIOYRDyjoUFrQbc39-7" edge="1">
          <mxGeometry relative="1" as="geometry" />
        </mxCell>
        <mxCell id="EVSIIOYRDyjoUFrQbc39-1" value="&lt;div&gt;User&lt;/div&gt;&lt;div&gt;&lt;br&gt;&lt;/div&gt;" style="shape=umlActor;verticalLabelPosition=bottom;verticalAlign=top;html=1;" parent="1" vertex="1">
          <mxGeometry x="-60" y="90" width="30" height="60" as="geometry" />
        </mxCell>
        <mxCell id="d3OAMxN0Ykl_ihY5fhsD-11" style="edgeStyle=orthogonalEdgeStyle;rounded=0;orthogonalLoop=1;jettySize=auto;html=1;exitX=1;exitY=1;exitDx=0;exitDy=0;exitPerimeter=0;entryX=0.5;entryY=0;entryDx=0;entryDy=0;" edge="1" parent="1" source="d3OAMxN0Ykl_ihY5fhsD-9" target="EVSIIOYRDyjoUFrQbc39-7">
          <mxGeometry relative="1" as="geometry">
            <mxPoint x="480" y="30" as="targetPoint" />
          </mxGeometry>
        </mxCell>
        <mxCell id="d3OAMxN0Ykl_ihY5fhsD-12" style="edgeStyle=orthogonalEdgeStyle;rounded=0;orthogonalLoop=1;jettySize=auto;html=1;exitX=1;exitY=1;exitDx=0;exitDy=0;exitPerimeter=0;" edge="1" parent="1" source="d3OAMxN0Ykl_ihY5fhsD-9" target="R9bvdQi3VKJ3fMyRb9Qu-6">
          <mxGeometry relative="1" as="geometry" />
        </mxCell>
        <mxCell id="d3OAMxN0Ykl_ihY5fhsD-13" style="edgeStyle=orthogonalEdgeStyle;rounded=0;orthogonalLoop=1;jettySize=auto;html=1;exitX=1;exitY=1;exitDx=0;exitDy=0;exitPerimeter=0;" edge="1" parent="1" source="d3OAMxN0Ykl_ihY5fhsD-9" target="d3OAMxN0Ykl_ihY5fhsD-1">
          <mxGeometry relative="1" as="geometry">
            <Array as="points">
              <mxPoint x="780" y="-150" />
              <mxPoint x="780" y="-90" />
              <mxPoint x="660" y="-90" />
            </Array>
          </mxGeometry>
        </mxCell>
        <mxCell id="d3OAMxN0Ykl_ihY5fhsD-14" style="edgeStyle=orthogonalEdgeStyle;rounded=0;orthogonalLoop=1;jettySize=auto;html=1;exitX=1;exitY=1;exitDx=0;exitDy=0;exitPerimeter=0;entryX=1;entryY=0.5;entryDx=0;entryDy=0;" edge="1" parent="1" source="d3OAMxN0Ykl_ihY5fhsD-9" target="d3OAMxN0Ykl_ihY5fhsD-4">
          <mxGeometry relative="1" as="geometry">
            <Array as="points">
              <mxPoint x="780" y="-150" />
              <mxPoint x="780" y="95" />
            </Array>
          </mxGeometry>
        </mxCell>
        <mxCell id="d3OAMxN0Ykl_ihY5fhsD-15" style="edgeStyle=orthogonalEdgeStyle;rounded=0;orthogonalLoop=1;jettySize=auto;html=1;exitX=1;exitY=1;exitDx=0;exitDy=0;exitPerimeter=0;entryX=1;entryY=0;entryDx=0;entryDy=0;" edge="1" parent="1" source="d3OAMxN0Ykl_ihY5fhsD-9" target="d3OAMxN0Ykl_ihY5fhsD-3">
          <mxGeometry relative="1" as="geometry">
            <Array as="points">
              <mxPoint x="850" y="-150" />
              <mxPoint x="850" y="65" />
              <mxPoint x="970" y="65" />
              <mxPoint x="970" y="150" />
            </Array>
          </mxGeometry>
        </mxCell>
        <mxCell id="d3OAMxN0Ykl_ihY5fhsD-9" value="&lt;div&gt;Banking System&lt;/div&gt;" style="shape=umlActor;verticalLabelPosition=bottom;verticalAlign=top;html=1;" vertex="1" parent="1">
          <mxGeometry x="290" y="-220" width="30" height="60" as="geometry" />
        </mxCell>
      </root>
    </mxGraphModel>
  </diagram>
</mxfile>
